HIERARCHY
ROOT joint_Root
{
	OFFSET 0.0 0.0 0.0
	CHANNELS 6 Xposition Yposition Zposition Zrotation Xrotation Yrotation 
	JOINT Hips
	{
		OFFSET -17.1583 93.1646 452.98
		CHANNELS 6 Xposition Yposition Zposition Zrotation Xrotation Yrotation 
		JOINT Spine
		{
			OFFSET 15.7357 0.0 0.0
			CHANNELS 6 Xposition Yposition Zposition Zrotation Xrotation Yrotation 
			JOINT Chest
			{
				OFFSET 8.98455 -0.406207 0.0
				CHANNELS 6 Xposition Yposition Zposition Zrotation Xrotation Yrotation 
				JOINT Neck
				{
					OFFSET 16.3773 0.0 0.0
					CHANNELS 6 Xposition Yposition Zposition Zrotation Xrotation Yrotation 
					JOINT Head
					{
						OFFSET 6.45672 0.0 0.0
						CHANNELS 6 Xposition Yposition Zposition Zrotation Xrotation Yrotation 
						End Site
						{
							OFFSET 0.0 0.0 0.0
						}
					}
				}
				JOINT Shoulder_L
				{
					OFFSET 12.9942 -0.242716 4.98039
					CHANNELS 6 Xposition Yposition Zposition Zrotation Xrotation Yrotation 
					JOINT UpperArm_L
					{
						OFFSET 5.34809 0.0 0.0
						CHANNELS 6 Xposition Yposition Zposition Zrotation Xrotation Yrotation 
						JOINT LowerArm_L
						{
							OFFSET 24.3286 1.87007e-05 0.0
							CHANNELS 6 Xposition Yposition Zposition Zrotation Xrotation Yrotation 
							JOINT Hand_L
							{
								OFFSET 22.2916 0.0 0.0
								CHANNELS 6 Xposition Yposition Zposition Zrotation Xrotation Yrotation 
								End Site
								{
									OFFSET 0.0 0.0 0.0
								}
							}
						}
					}
				}
				JOINT Shoulder_R
				{
					OFFSET 12.9945 -0.242716 -4.98039
					CHANNELS 6 Xposition Yposition Zposition Zrotation Xrotation Yrotation 
					JOINT UpperArm_R
					{
						OFFSET -5.34813 0.0 0.0
						CHANNELS 6 Xposition Yposition Zposition Zrotation Xrotation Yrotation 
						JOINT LowerArm_R
						{
							OFFSET -24.3289 0.000322201 0.0
							CHANNELS 6 Xposition Yposition Zposition Zrotation Xrotation Yrotation 
							JOINT Hand_R
							{
								OFFSET -22.2915 -0.000108084 0.0
								CHANNELS 6 Xposition Yposition Zposition Zrotation Xrotation Yrotation 
								End Site
								{
									OFFSET 0.0 0.0 0.0
								}
							}
						}
					}
				}
			}
		}
		JOINT UpperLeg_L
		{
			OFFSET -2.19248 -6.46944 0.0
			CHANNELS 6 Xposition Yposition Zposition Zrotation Xrotation Yrotation 
			JOINT LowerLeg_L
			{
				OFFSET 39.0811 0.0 -1.23785e-05
				CHANNELS 6 Xposition Yposition Zposition Zrotation Xrotation Yrotation 
				JOINT Foot_L
				{
					OFFSET 40.9854 0.0 -1.26872e-05
					CHANNELS 6 Xposition Yposition Zposition Zrotation Xrotation Yrotation 
					JOINT Toes_L
					{
						OFFSET 11.7543 0.0 0.0
						CHANNELS 6 Xposition Yposition Zposition Zrotation Xrotation Yrotation 
						End Site
						{
							OFFSET 0.0 0.0 0.0
						}
					}
				}
			}
		}
		JOINT UpperLeg_R
		{
			OFFSET -2.19251 6.46944 0.0
			CHANNELS 6 Xposition Yposition Zposition Zrotation Xrotation Yrotation 
			JOINT LowerLeg_R
			{
				OFFSET -39.0811 -0.00228153 -0.0401928
				CHANNELS 6 Xposition Yposition Zposition Zrotation Xrotation Yrotation 
				JOINT Foot_R
				{
					OFFSET -40.9854 0.0 0.0
					CHANNELS 6 Xposition Yposition Zposition Zrotation Xrotation Yrotation 
					JOINT Toes_R
					{
						OFFSET -11.7543 0.0 0.0
						CHANNELS 6 Xposition Yposition Zposition Zrotation Xrotation Yrotation 
						End Site
						{
							OFFSET 0.0 0.0 0.0
						}
					}
				}
			}
		}
	}
}
MOTION
Frames:	4
Frame Time:	0.0333333
0.000000 0.000000 0.000000 0.000000 0.000000 -0.000000 2.164940 94.515700 -0.666315 88.795300 0.395250 -17.391800 15.735700 0.000005 -0.000001 27.877700 83.679700 -25.338400 8.984550 -0.406207 -0.000000 -1.605600 -11.378700 4.930240 16.377300 -0.000001 -0.000001 -6.298960 6.082850 -1.933300 6.456720 -0.000001 -0.000000 1.945060 12.339400 -0.669213 12.994200 -0.242716 4.980390 -90.395700 1.692600 -76.838600 5.348090 -0.000007 -0.000001 -65.867900 -0.832174 -9.959900 24.328600 0.000019 0.000005 26.838700 0.527954 -88.952100 22.291600 -0.000001 0.000005 18.112300 4.906320 9.266780 12.994500 -0.242716 -4.980390 90.174700 -0.610415 -74.028900 -5.348130 -0.000001 -0.000004 -44.782000 -19.021400 26.495100 -24.328900 0.000322 -0.000009 -0.001805 20.842800 0.000098 -22.291500 -0.000108 -0.000004 23.806800 4.222450 20.978800 -2.192480 -6.469440 -0.000000 -179.117000 -6.227020 5.825380 39.081100 -0.000007 -0.000012 0.087251 -0.124322 35.061600 40.985400 -0.000006 -0.000013 -7.290290 5.102000 -32.128300 11.754300 -0.000000 0.000003 0.002339 0.063366 -14.006700 -2.192510 6.469440 -0.000001 -179.743000 -5.959080 139.491000 -39.081100 -0.002282 -0.040193 0.000976 0.009795 13.527200 -40.985400 0.000008 0.000006 -12.700500 -4.500390 -74.843800 -11.754300 -0.000006 -0.000006 0.000454 0.159651 -10.098300
0.000000 0.000000 0.000000 0.000000 0.000000 -0.000000 2.228820 92.230900 10.861100 89.408300 -1.254640 -14.910400 15.735700 0.000005 -0.000001 35.101200 83.974400 -32.888300 8.984550 -0.406207 -0.000000 -0.635076 -10.019600 4.376910 16.377300 -0.000001 -0.000001 -5.936400 6.118260 -2.218960 6.456720 -0.000001 -0.000000 2.123270 11.997800 -1.765760 12.994200 -0.242716 4.980390 -90.571600 2.374700 -76.463800 5.348090 -0.000007 -0.000001 -66.389800 0.412042 -7.535040 24.328600 0.000019 0.000005 24.963200 3.419760 -82.697900 22.291600 -0.000001 0.000005 12.532000 4.877360 9.812460 12.994500 -0.242716 -4.980390 90.185900 -0.651973 -74.087300 -5.348130 -0.000001 -0.000004 -44.693100 -21.103200 23.562400 -24.328900 0.000322 -0.000009 -0.001030 17.033400 0.000080 -22.291500 -0.000108 -0.000004 24.951000 4.256990 20.450700 -2.192480 -6.469440 -0.000000 179.258000 -6.023400 5.842110 39.081100 -0.000007 -0.000012 0.166232 -0.143800 49.137900 40.985400 -0.000006 -0.000013 -9.316210 6.217190 -30.210000 11.754300 -0.000000 0.000003 0.002351 0.064162 -13.974400 -2.192510 6.469440 -0.000001 -178.807000 -4.735120 143.403000 -39.081100 -0.002282 -0.040193 -0.002048 0.021742 13.898800 -40.985400 0.000008 0.000006 -12.665500 -6.094870 -79.053400 -11.754300 -0.000006 -0.000006 0.000653 0.155836 -10.253200
0.000000 0.000000 0.000000 0.000000 0.000000 -0.000000 1.790580 89.472400 21.218400 87.273000 -2.660810 -16.643100 15.735700 0.000005 -0.000001 37.683200 85.264100 -34.632800 8.984550 -0.406207 -0.000000 -1.766920 -7.747780 5.987310 16.377300 -0.000001 -0.000001 -6.146900 6.068820 -2.396890 6.456720 -0.000001 -0.000000 1.808490 11.249600 -2.894760 12.994200 -0.242716 4.980390 -91.216400 4.696530 -75.465400 5.348090 -0.000007 -0.000001 -65.711000 1.236520 -4.080760 24.328600 0.000019 0.000005 26.146500 7.026880 -76.013700 22.291600 -0.000001 0.000005 5.960560 4.937090 8.614420 12.994500 -0.242716 -4.980390 89.826500 0.606178 -74.030200 -5.348130 -0.000001 -0.000004 -45.452000 -19.890000 17.364500 -24.328900 0.000322 -0.000009 -0.000994 16.043300 0.000064 -22.291500 -0.000108 -0.000004 22.845200 4.359180 18.844400 -2.192480 -6.469440 -0.000000 -178.199000 -9.024530 -2.268740 39.081100 -0.000007 -0.000012 0.409887 -0.174499 66.939000 40.985400 -0.000006 -0.000013 -9.146530 5.105210 -31.187200 11.754300 -0.000000 0.000003 0.002360 0.064846 -13.946700 -2.192510 6.469440 -0.000001 -172.426000 -1.527670 135.771000 -39.081100 -0.002282 -0.040193 0.129271 -0.214435 30.432300 -40.985400 0.000008 0.000006 -2.005730 -9.357490 -69.313100 -11.754300 -0.000006 -0.000006 0.001557 0.135135 -11.093200
0.000000 0.000000 0.000000 0.000000 0.000000 -0.000000 1.374250 86.044300 31.445000 85.844200 -2.635940 -15.168800 15.735700 0.000005 -0.000001 52.613200 85.449600 -49.038700 8.984550 -0.406207 -0.000000 -0.342512 -5.777400 7.132800 16.377300 -0.000001 -0.000001 -7.042110 5.600490 -2.244440 6.456720 -0.000001 -0.000000 0.645690 9.966730 -4.183410 12.994200 -0.242716 4.980390 -91.810100 6.762570 -74.978700 5.348090 -0.000007 -0.000001 -64.562900 1.469780 -0.168916 24.328600 0.000019 0.000005 28.380300 12.477800 -68.213400 22.291600 -0.000001 0.000005 4.300010 4.971930 7.910030 12.994500 -0.242716 -4.980390 89.417500 2.049520 -74.128800 -5.348130 -0.000001 -0.000004 -47.303800 -17.738300 10.309900 -24.328900 0.000322 -0.000009 0.074041 14.770500 -0.298436 -22.291500 -0.000108 -0.000004 18.206400 4.603910 14.779400 -2.192480 -6.469440 -0.000000 -175.284000 -10.304400 -9.439600 39.081100 -0.000007 -0.000012 0.697489 -0.062240 84.900300 40.985400 -0.000006 -0.000013 -9.156890 -2.144370 -34.351300 11.754300 -0.000000 0.000003 0.002349 0.064070 -13.978100 -2.192510 6.469440 -0.000001 -169.581000 1.687670 133.730000 -39.081100 -0.002282 -0.040193 0.123306 -0.105839 48.600500 -40.985400 0.000008 0.000006 0.399258 -4.673230 -74.107200 -11.754300 -0.000006 -0.000006 -0.006174 0.240078 -6.826390
